<?xml version="1.0" encoding="UTF-8" standalone="no"?>
<!-- Created with Inkscape (http://www.inkscape.org/) -->

<svg
   xmlns:dc="http://purl.org/dc/elements/1.1/"
   xmlns:cc="http://creativecommons.org/ns#"
   xmlns:rdf="http://www.w3.org/1999/02/22-rdf-syntax-ns#"
   xmlns:svg="http://www.w3.org/2000/svg"
   xmlns="http://www.w3.org/2000/svg"
   xmlns:sodipodi="http://sodipodi.sourceforge.net/DTD/sodipodi-0.dtd"
   xmlns:inkscape="http://www.inkscape.org/namespaces/inkscape"
   width="9.719202cm"
   height="3.2823489cm"
   viewBox="0 0 97.192021 32.823488"
   version="1.1"
   id="svg3870"
   inkscape:version="0.92.4 (33fec40, 2019-01-16)"
   sodipodi:docname="cardfunc.svg">
  <defs
     id="defs3864" />
  <sodipodi:namedview
     id="base"
     pagecolor="#2e3436"
     bordercolor="#666666"
     borderopacity="1.0"
     inkscape:pageopacity="0"
     inkscape:pageshadow="2"
     inkscape:zoom="2.8"
     inkscape:cx="72.674536"
     inkscape:cy="91.400937"
     inkscape:document-units="mm"
     inkscape:current-layer="layer1"
     showgrid="false"
     units="cm"
     fit-margin-top="1"
     fit-margin-left="1"
     fit-margin-right="1"
     fit-margin-bottom="1"
     inkscape:window-width="2517"
     inkscape:window-height="1385"
     inkscape:window-x="2091"
     inkscape:window-y="27"
     inkscape:window-maximized="1" />
  <metadata
     id="metadata3867">
    <rdf:RDF>
      <cc:Work
         rdf:about="">
        <dc:format>image/svg+xml</dc:format>
        <dc:type
           rdf:resource="http://purl.org/dc/dcmitype/StillImage" />
        <dc:title></dc:title>
      </cc:Work>
    </rdf:RDF>
  </metadata>
  <g
     inkscape:label="Layer 1"
     inkscape:groupmode="layer"
     id="layer1"
     transform="translate(-88.479963,-198.8178)">
    <g
       id="g4326"
       transform="matrix(0.28222223,0,0,0.28222223,-273.33594,62.503303)">
      <circle
         r="11.979613"
         cy="539.01904"
         cx="1329.4375"
         id="circle4277"
         style="opacity:1;fill:#edd400;fill-opacity:1;fill-rule:nonzero;stroke:none;stroke-width:3.54330707;stroke-linecap:round;stroke-linejoin:miter;stroke-miterlimit:4;stroke-dasharray:none;stroke-dashoffset:4.80000019;stroke-opacity:1" />
      <path
         id="path4279"
         style="font-style:normal;font-variant:normal;font-weight:bold;font-stretch:normal;font-size:medium;line-height:100.99999905%;font-family:'Ubuntu Mono';-inkscape-font-specification:'Ubuntu Mono Bold';text-align:center;letter-spacing:-2.92191768px;word-spacing:0px;writing-mode:lr-tb;text-anchor:middle;fill:#eeeeec;fill-opacity:1;stroke:none;stroke-width:1px;stroke-linecap:butt;stroke-linejoin:miter;stroke-opacity:1"
         d="m 1455.9644,554.533 v -35.2338 h 21.5728 v 5.8059 h -14.5716 v 8.5381 h 12.7502 v 5.8059 h -12.7502 v 15.0839 z"
         inkscape:connector-curvature="0" />
      <path
         id="path4281"
         style="font-style:normal;font-variant:normal;font-weight:bold;font-stretch:normal;font-size:medium;line-height:100.99999905%;font-family:'Ubuntu Mono';-inkscape-font-specification:'Ubuntu Mono Bold';text-align:center;letter-spacing:-2.92191768px;word-spacing:0px;writing-mode:lr-tb;text-anchor:middle;fill:#eeeeec;fill-opacity:1;stroke:none;stroke-width:1px;stroke-linecap:butt;stroke-linejoin:miter;stroke-opacity:1"
         d="m 1507.6772,527.7804 h 12.6441 c 2.1251,0 3.8896,0.30356 5.2936,0.9107 1.4041,0.5692 2.5046,1.40403 3.3014,2.5045 0.8349,1.06253 1.4231,2.35273 1.7646,3.8706 0.3415,1.47993 0.5122,3.16358 0.5122,4.9521 v 14.5147 h -7.0012 v -13.9455 c 0,-2.50454 -0.2846,-4.30704 -0.8538,-5.4075 -0.5692,-1.10047 -1.7265,-1.6507 -3.4721,-1.6507 h -5.1876 v 21.0037 h -7.0012 z"
         inkscape:connector-curvature="0"
         sodipodi:nodetypes="cscccsccssscccc" />
      <path
         sodipodi:nodetypes="cscccsccssscccc"
         inkscape:connector-curvature="0"
         d="M 1503.4841,554.5329 H 1490.84 c -2.1251,0 -3.8896,-0.3035 -5.2936,-0.9107 -1.4041,-0.5691 -2.5046,-1.404 -3.3014,-2.5045 -0.8349,-1.0625 -1.4231,-2.3527 -1.7646,-3.8705 -0.3415,-1.48 -0.5122,-3.1307 -0.5122,-4.9521 v -14.5147 h 7.0012 v 13.9454 c 0,2.5046 0.2846,4.3071 0.8538,5.4075 0.5692,1.1005 1.7265,1.6507 3.4721,1.6507 h 5.1876 v -21.0036 h 7.0012 z"
         style="font-style:normal;font-variant:normal;font-weight:bold;font-stretch:normal;font-size:medium;line-height:100.99999905%;font-family:'Ubuntu Mono';-inkscape-font-specification:'Ubuntu Mono Bold';text-align:center;letter-spacing:-2.92191768px;word-spacing:0px;writing-mode:lr-tb;text-anchor:middle;fill:#eeeeec;fill-opacity:1;stroke:none;stroke-width:1px;stroke-linecap:butt;stroke-linejoin:miter;stroke-opacity:1"
         id="path4283" />
      <path
         sodipodi:nodetypes="cscsscsccccccccccccsscccccccsccc"
         style="font-style:normal;font-variant:normal;font-weight:bold;font-stretch:normal;font-size:medium;line-height:100.99999905%;font-family:'Ubuntu Mono';-inkscape-font-specification:'Ubuntu Mono Bold';text-align:center;letter-spacing:-2.92191768px;word-spacing:0px;writing-mode:lr-tb;text-anchor:middle;fill:#eeeeec;fill-opacity:1;stroke:none;stroke-width:1px;stroke-linecap:butt;stroke-linejoin:miter;stroke-opacity:1"
         d="m 1553.7314,548.78282 h -8.1431 c -1.7456,0 -2.9035,-0.54989 -3.4727,-1.65039 -0.5692,-1.1004 -0.8535,-2.9036 -0.8535,-5.4082 v -1.13672 c 0,-2.5046 0.2843,-4.3078 0.8535,-5.4082 0.5692,-1.1005 1.7271,-1.65039 3.4727,-1.65039 h 8.1431 l 0.9213,-5.74982 h -3.8769 -5.6426 v -1.8e-4 c -0.4429,0 -0.8617,0.0204 -1.2734,0.0469 -0.1982,0.0135 -0.3933,0.031 -0.584,0.0508 -0.1777,0.0176 -0.3481,0.0416 -0.5195,0.0645 -0.5245,0.0726 -1.0268,0.16295 -1.4942,0.2832 -0.5051,0.13011 -0.9882,0.27841 -1.4238,0.4668 -1.4041,0.5691 -2.504,1.4034 -3.3008,2.5039 -0.8349,1.0625 -1.4222,2.3533 -1.7637,3.8711 -0.3415,1.48 -0.5136,3.12977 -0.5136,4.95117 v 2.27734 c 0,1.8214 0.1721,3.47117 0.5136,4.95117 0.3415,1.5178 0.9288,2.8086 1.7637,3.8711 0.7968,1.1005 1.8967,1.9348 3.3008,2.5039 0.4356,0.18839 0.9187,0.33669 1.4238,0.4668 0.4674,0.12025 0.9697,0.21058 1.4942,0.2832 0.1714,0.0229 0.3418,0.0469 0.5195,0.0645 0.1907,0.0198 0.3858,0.0373 0.584,0.0508 0.4117,0.0265 0.8305,0.0469 1.2734,0.0469 h 5.6426 3.8769 z"
         id="path4285"
         inkscape:connector-curvature="0" />
      <path
         sodipodi:nodetypes="ccccccccsscccccccsccccccsccscsscs"
         inkscape:connector-curvature="0"
         id="path4295"
         d="m 1392.3416,527.77892 c -0.4429,0 -0.8617,0.0204 -1.2734,0.0469 -0.1982,0.0135 -0.3933,0.031 -0.584,0.0508 -0.1777,0.0176 -0.3481,0.0416 -0.5195,0.0645 -0.5245,0.0726 -1.0268,0.16295 -1.4942,0.2832 -0.5051,0.13011 -0.9882,0.27841 -1.4238,0.4668 -1.4041,0.5691 -2.5041,1.4034 -3.3009,2.5039 -0.8349,1.0625 -1.4222,2.3533 -1.7637,3.8711 -0.3415,1.48 -0.5136,3.12977 -0.5136,4.95117 v 2.27734 c 0,1.8214 0.1721,3.47117 0.5136,4.95117 0.3415,1.5178 0.9288,2.8086 1.7637,3.8711 0.7968,1.1005 1.8968,1.9348 3.3009,2.5039 0.4356,0.18839 0.9187,0.33669 1.4238,0.4668 0.4674,0.12025 0.9697,0.21058 1.4942,0.2832 0.1714,0.0229 0.3418,0.0469 0.5195,0.0645 0.1907,0.0198 0.3858,0.0373 0.584,0.0508 0.4117,0.0265 0.8305,0.0469 1.2734,0.0469 h 6.7188 7.0019 v -26.7539 h -7.0019 -6.7188 z m 0.4551,5.75 h 6.2637 v 15.2539 h -6.2637 c -1.7456,0 -2.9035,-0.54989 -3.4727,-1.65039 -0.5692,-1.1004 -0.8535,-2.9036 -0.8535,-5.4082 v -1.13672 c 0,-2.5046 0.2843,-4.3078 0.8535,-5.4082 0.5692,-1.1005 1.7271,-1.65039 3.4727,-1.65039 z"
         style="font-style:normal;font-variant:normal;font-weight:bold;font-stretch:normal;font-size:medium;line-height:100.99999905%;font-family:'Ubuntu Mono';-inkscape-font-specification:'Ubuntu Mono Bold';text-align:center;letter-spacing:-2.92191768px;word-spacing:0px;writing-mode:lr-tb;text-anchor:middle;fill:#eeeeec;fill-opacity:1;stroke:none;stroke-width:1px;stroke-linecap:butt;stroke-linejoin:miter;stroke-opacity:1" />
      <path
         inkscape:connector-curvature="0"
         d="m 1581.3846,519.9236 c 6.1236,5.81601 7.5383,12.81311 7.5383,21.23236 0,8.41925 -1.4147,15.41635 -7.5383,21.23236 m -7.6833,-42.46472 c -6.1236,5.81601 -7.5383,12.81311 -7.5383,21.23236 0,8.41925 1.4147,15.41635 7.5383,21.23236"
         style="fill:none;fill-opacity:1;fill-rule:evenodd;stroke:#eeeeec;stroke-width:4.0999999;stroke-linecap:butt;stroke-linejoin:miter;stroke-miterlimit:4;stroke-dasharray:none;stroke-opacity:1"
         id="path4297" />
      <path
         inkscape:connector-curvature="0"
         id="path4310"
         d="m 1379.7314,548.78282 h -10.1431 c -1.7456,0 -2.9035,-0.54989 -3.4727,-1.65039 -0.5692,-1.1004 -0.8535,-2.9036 -0.8535,-5.4082 v -9.74139 c 0,-2.5046 0.2843,-4.3078 0.8535,-5.4082 0.5692,-1.1005 1.7271,-1.65039 3.4727,-1.65039 h 10.1431 l 0.9213,-5.74982 h -3.8769 -7.6426 v -1.8e-4 c -0.4429,0 -0.8617,0.0204 -1.2734,0.0469 -0.1982,0.0135 -0.3933,0.031 -0.584,0.0508 -0.1777,0.0176 -0.3481,0.0416 -0.5195,0.0645 -0.5245,0.0726 -1.0268,0.16295 -1.4942,0.2832 -0.5051,0.13011 -0.9882,0.27841 -1.4238,0.4668 -1.4041,0.5691 -2.504,1.4034 -3.3008,2.5039 -0.8349,1.0625 -1.4222,2.3533 -1.7637,3.8711 -0.3415,1.48 -0.5136,3.12977 -0.5136,4.95117 v 10.88201 c 0,1.8214 0.1721,3.47117 0.5136,4.95117 0.3415,1.5178 0.9288,2.8086 1.7637,3.8711 0.7968,1.1005 1.8967,1.9348 3.3008,2.5039 0.4356,0.18839 0.9187,0.33669 1.4238,0.4668 0.4674,0.12025 0.9697,0.21058 1.4942,0.2832 0.1714,0.0229 0.3418,0.0469 0.5195,0.0645 0.1907,0.0198 0.3858,0.0373 0.584,0.0508 0.4117,0.0265 0.8305,0.0469 1.2734,0.0469 h 7.6426 3.8769 z"
         style="font-style:normal;font-variant:normal;font-weight:bold;font-stretch:normal;font-size:medium;line-height:100.99999905%;font-family:'Ubuntu Mono';-inkscape-font-specification:'Ubuntu Mono Bold';text-align:center;letter-spacing:-2.92191768px;word-spacing:0px;writing-mode:lr-tb;text-anchor:middle;fill:#eeeeec;fill-opacity:1;stroke:none;stroke-width:1px;stroke-linecap:butt;stroke-linejoin:miter;stroke-opacity:1"
         sodipodi:nodetypes="cscsscsccccccccccccsscccccccsccc" />
      <rect
         style="opacity:1;fill:#eeeeec;fill-opacity:1;fill-rule:nonzero;stroke:none;stroke-width:20;stroke-linecap:round;stroke-linejoin:miter;stroke-miterlimit:4;stroke-dasharray:none;stroke-dashoffset:4.80000019;stroke-opacity:1"
         id="rect4314"
         width="7.0012002"
         height="35.233799"
         x="1444.8267"
         y="519.29919" />
      <path
         sodipodi:nodetypes="cscccsccssscccc"
         inkscape:connector-curvature="0"
         d="m 1410.216,527.7804 h 12.6441 c 2.1251,0 3.8896,0.30356 5.2936,0.9107 1.4041,0.5692 2.5046,1.40403 3.3014,2.5045 0.8349,1.06253 1.4231,2.35273 1.7646,3.8706 0.3415,1.47993 0.5122,3.16358 0.5122,4.9521 v 14.5147 h -7.0012 v -13.9455 c 0,-2.50454 -0.2846,-4.30704 -0.8538,-5.4075 -0.5692,-1.10047 -1.7265,-1.6507 -3.4721,-1.6507 h -5.1876 v 21.0037 h -7.0012 z"
         style="font-style:normal;font-variant:normal;font-weight:bold;font-stretch:normal;font-size:medium;line-height:100.99999905%;font-family:'Ubuntu Mono';-inkscape-font-specification:'Ubuntu Mono Bold';text-align:center;letter-spacing:-2.92191768px;word-spacing:0px;writing-mode:lr-tb;text-anchor:middle;fill:#eeeeec;fill-opacity:1;stroke:none;stroke-width:1px;stroke-linecap:butt;stroke-linejoin:miter;stroke-opacity:1"
         id="path4316" />
      <path
         sodipodi:nodetypes="ccccc"
         inkscape:connector-curvature="0"
         id="rect4318"
         d="m 1424.6575,535.19149 4.897,-9.34529 7.1801,33.57549 h -14.7968 z"
         style="opacity:1;fill:#2e3436;fill-opacity:1;fill-rule:nonzero;stroke:none;stroke-width:20;stroke-linecap:round;stroke-linejoin:miter;stroke-miterlimit:4;stroke-dasharray:none;stroke-dashoffset:4.80000019;stroke-opacity:1" />
      <path
         style="font-style:normal;font-variant:normal;font-weight:bold;font-stretch:normal;font-size:medium;line-height:100.99999905%;font-family:'Ubuntu Mono';-inkscape-font-specification:'Ubuntu Mono Bold';text-align:center;letter-spacing:-2.92191768px;word-spacing:0px;writing-mode:lr-tb;text-anchor:middle;fill:#eeeeec;fill-opacity:1;stroke:none;stroke-width:1px;stroke-linecap:butt;stroke-linejoin:miter;stroke-opacity:1"
         d="m 1438.0513,527.77892 c -0.4429,0 -0.8617,0.0204 -1.2734,0.0469 -0.1982,0.0135 -0.3933,0.031 -0.584,0.0508 -0.1777,0.0176 -0.3481,0.0416 -0.5195,0.0645 -0.5245,0.0726 -1.0268,0.16295 -1.4942,0.2832 -0.5051,0.13011 -0.9882,0.27841 -1.4238,0.4668 -1.4041,0.5691 -2.504,1.4034 -3.3008,2.5039 -0.8349,1.0625 -1.4222,2.3533 -1.7637,3.8711 -0.3415,1.48 -0.5136,3.12977 -0.5136,4.95117 v 2.27734 c 0,1.8214 0.1721,3.47117 0.5136,4.95117 0.3415,1.5178 0.9288,2.8086 1.7637,3.8711 0.7968,1.1005 1.8967,1.9348 3.3008,2.5039 0.4356,0.18839 0.9187,0.33669 1.4238,0.4668 0.4674,0.12025 0.9697,0.21058 1.4942,0.2832 0.1714,0.0229 0.3418,0.0469 0.5195,0.0645 0.1907,0.0198 0.3858,0.0373 0.584,0.0508 0.4117,0.0265 0.8305,0.0469 1.2734,0.0469 h 6.7188 7.0019 v -26.7539 h -7.0019 -6.7188 z m 0.4551,5.75 h 6.2637 v 15.2539 h -6.2637 c -1.7456,0 -2.9035,-0.54989 -3.4727,-1.65039 -0.5692,-1.1004 -0.8535,-2.9036 -0.8535,-5.4082 v -1.13672 c 0,-2.5046 0.2843,-4.3078 0.8535,-5.4082 0.5692,-1.1005 1.7271,-1.65039 3.4727,-1.65039 z"
         id="path4312"
         inkscape:connector-curvature="0"
         sodipodi:nodetypes="ccccccccsscccccccsccccccsccscsscs" />
    </g>
  </g>
</svg>
